<svg width="89" height="11" viewBox="0 0 89 11" fill="none" xmlns="http://www.w3.org/2000/svg">
<path d="M3.7959 5.88037C2.75065 5.57992 1.98893 5.21175 1.51074 4.77588C1.03678 4.33577 0.799805 3.79411 0.799805 3.15088C0.799805 2.42301 1.08968 1.8221 1.66943 1.34814C2.25342 0.869954 3.0109 0.630859 3.94189 0.630859C4.57666 0.630859 5.1416 0.753581 5.63672 0.999023C6.13607 1.24447 6.52116 1.58301 6.79199 2.01465C7.06706 2.44629 7.20459 2.91813 7.20459 3.43018H5.97949C5.97949 2.87158 5.80176 2.43359 5.44629 2.11621C5.09082 1.7946 4.58936 1.63379 3.94189 1.63379C3.34098 1.63379 2.87126 1.76709 2.53271 2.03369C2.1984 2.29606 2.03125 2.66211 2.03125 3.13184C2.03125 3.50846 2.18994 3.82796 2.50732 4.09033C2.82894 4.34847 3.37272 4.58545 4.13867 4.80127C4.90885 5.01709 5.50977 5.25618 5.94141 5.51855C6.37728 5.77669 6.69889 6.07926 6.90625 6.42627C7.11784 6.77327 7.22363 7.18164 7.22363 7.65137C7.22363 8.40039 6.93164 9.0013 6.34766 9.4541C5.76367 9.90267 4.98291 10.127 4.00537 10.127C3.37061 10.127 2.77816 10.0063 2.22803 9.76514C1.6779 9.51969 1.2526 9.18538 0.952148 8.76221C0.655924 8.33903 0.507812 7.85872 0.507812 7.32129H1.73291C1.73291 7.87988 1.93815 8.3221 2.34863 8.64795C2.76335 8.96956 3.31559 9.13037 4.00537 9.13037C4.6486 9.13037 5.1416 8.99919 5.48438 8.73682C5.82715 8.47445 5.99854 8.11686 5.99854 7.66406C5.99854 7.21126 5.83984 6.86214 5.52246 6.6167C5.20508 6.36702 4.62956 6.12158 3.7959 5.88037ZM10.0991 10H8.88037V0.757812H10.0991V10ZM13.9077 0.757812L16.9292 8.29883L19.9507 0.757812H21.5312V10H20.3125V6.40088L20.4268 2.51611L17.3926 10H16.4595L13.4316 2.53516L13.5522 6.40088V10H12.3335V0.757812H13.9077ZM24.9019 6.38184V10H23.6831V0.757812H27.0918C28.1032 0.757812 28.8945 1.01595 29.4658 1.53223C30.0413 2.0485 30.3291 2.73193 30.3291 3.58252C30.3291 4.47965 30.0477 5.17155 29.4849 5.6582C28.9263 6.14062 28.1243 6.38184 27.0791 6.38184H24.9019ZM24.9019 5.38525H27.0918C27.7435 5.38525 28.2428 5.23291 28.5898 4.92822C28.9368 4.6193 29.1104 4.17497 29.1104 3.59521C29.1104 3.04508 28.9368 2.60498 28.5898 2.2749C28.2428 1.94482 27.7668 1.77344 27.1616 1.76074H24.9019V5.38525ZM33.1094 9.00342H37.4893V10H31.8843V0.757812H33.1094V9.00342ZM44.1035 5.72803H40.0981V9.00342H44.751V10H38.8794V0.757812H44.6875V1.76074H40.0981V4.73145H44.1035V5.72803ZM68.688 10H62.6323V9.15576L65.8315 5.60107C66.3055 5.06364 66.6313 4.62777 66.8091 4.29346C66.991 3.95492 67.082 3.60579 67.082 3.24609C67.082 2.76367 66.936 2.368 66.644 2.05908C66.3521 1.75016 65.9627 1.5957 65.4761 1.5957C64.8921 1.5957 64.4372 1.76286 64.1113 2.09717C63.7897 2.42725 63.6289 2.88851 63.6289 3.48096H62.4546C62.4546 2.63037 62.7275 1.94271 63.2734 1.41797C63.8236 0.893229 64.5578 0.630859 65.4761 0.630859C66.3351 0.630859 67.0143 0.857259 67.5137 1.31006C68.013 1.75863 68.2627 2.35742 68.2627 3.10645C68.2627 4.01628 67.6829 5.09961 66.5234 6.35645L64.0479 9.0415H68.688V10ZM75.7275 6.05811C75.7275 7.43343 75.4927 8.4554 75.0229 9.12402C74.5532 9.79264 73.819 10.127 72.8203 10.127C71.8343 10.127 71.1043 9.80111 70.6304 9.14941C70.1564 8.49349 69.911 7.51595 69.894 6.2168V4.64893C69.894 3.29053 70.1289 2.28125 70.5986 1.62109C71.0684 0.960938 71.8047 0.630859 72.8076 0.630859C73.8021 0.630859 74.5342 0.950358 75.0039 1.58936C75.4736 2.22412 75.7148 3.20589 75.7275 4.53467V6.05811ZM74.5532 4.45215C74.5532 3.45768 74.4136 2.73405 74.1343 2.28125C73.855 1.82422 73.4128 1.5957 72.8076 1.5957C72.2067 1.5957 71.7687 1.8221 71.4937 2.2749C71.2186 2.7277 71.0768 3.42383 71.0684 4.36328V6.24219C71.0684 7.24089 71.2122 7.97933 71.5 8.45752C71.792 8.93148 72.2321 9.16846 72.8203 9.16846C73.4001 9.16846 73.8296 8.94417 74.1089 8.49561C74.3924 8.04704 74.5405 7.34033 74.5532 6.37549V4.45215ZM83.2876 10H77.2319V9.15576L80.4312 5.60107C80.9051 5.06364 81.231 4.62777 81.4087 4.29346C81.5907 3.95492 81.6816 3.60579 81.6816 3.24609C81.6816 2.76367 81.5356 2.368 81.2437 2.05908C80.9517 1.75016 80.5623 1.5957 80.0757 1.5957C79.4917 1.5957 79.0368 1.76286 78.7109 2.09717C78.3893 2.42725 78.2285 2.88851 78.2285 3.48096H77.0542C77.0542 2.63037 77.3271 1.94271 77.873 1.41797C78.4232 0.893229 79.1574 0.630859 80.0757 0.630859C80.9347 0.630859 81.6139 0.857259 82.1133 1.31006C82.6126 1.75863 82.8623 2.35742 82.8623 3.10645C82.8623 4.01628 82.2826 5.09961 81.123 6.35645L78.6475 9.0415H83.2876V10ZM88.3911 10H87.2104V2.17334L84.8428 3.04297V1.97656L88.207 0.713379H88.3911V10Z" fill="#4C5866"/>
<path d="M48.9912 5.37256C48.9912 4.51774 49.188 3.72428 49.5815 2.99219C49.9793 2.26009 50.5273 1.68457 51.2256 1.26562C51.9281 0.842448 52.6855 0.630859 53.498 0.630859C54.3105 0.630859 55.0659 0.842448 55.7642 1.26562C56.4624 1.68457 57.0083 2.26009 57.4019 2.99219C57.7996 3.72428 57.9985 4.51774 57.9985 5.37256C57.9985 6.20622 57.8081 6.98698 57.4272 7.71484C57.0464 8.44271 56.5047 9.02881 55.8022 9.47314C55.104 9.91325 54.3359 10.1333 53.498 10.1333C52.6644 10.1333 51.8963 9.91536 51.1938 9.47949C50.4956 9.03939 49.9539 8.4554 49.5688 7.72754C49.1838 6.99967 48.9912 6.21468 48.9912 5.37256ZM49.7212 5.37256C49.7212 6.10042 49.8905 6.77539 50.229 7.39746C50.5675 8.0153 51.0267 8.49984 51.6064 8.85107C52.1904 9.20231 52.821 9.37793 53.498 9.37793C54.1794 9.37793 54.812 9.2002 55.396 8.84473C55.98 8.48503 56.437 7.99837 56.7671 7.38477C57.1014 6.77116 57.2686 6.10042 57.2686 5.37256C57.2686 4.64893 57.1014 3.98242 56.7671 3.37305C56.437 2.75944 55.98 2.27702 55.396 1.92578C54.812 1.57031 54.1794 1.39258 53.498 1.39258C52.821 1.39258 52.1904 1.5682 51.6064 1.91943C51.0225 2.26644 50.5612 2.74886 50.2227 3.3667C49.8883 3.98454 49.7212 4.65316 49.7212 5.37256ZM52.5649 5.84863V7.99414H51.6699V2.60498H53.4219C54.0693 2.60498 54.5708 2.74463 54.9263 3.02393C55.286 3.29899 55.4658 3.70101 55.4658 4.22998C55.4658 4.75049 55.195 5.14827 54.6533 5.42334C55.1696 5.63493 55.4299 6.06657 55.4341 6.71826V7.10547C55.4341 7.4694 55.4701 7.73177 55.542 7.89258V7.99414H54.6216C54.5623 7.8418 54.5327 7.57096 54.5327 7.18164C54.5327 6.78809 54.5264 6.55534 54.5137 6.4834C54.446 6.07715 54.1688 5.86556 53.6821 5.84863H52.5649ZM52.5649 5.03613H53.5552C53.8599 5.02767 54.1053 4.95361 54.2915 4.81396C54.4777 4.67432 54.5708 4.49023 54.5708 4.26172C54.5708 3.9528 54.4883 3.73486 54.3232 3.60791C54.1582 3.47673 53.8641 3.41113 53.4409 3.41113H52.5649V5.03613Z" fill="#BCBCBC"/>
</svg>
